/vscmnt/brussel_pixiu_data/_data_brussel/112/vsc11236/PredSimResults/SUBJ09opt3D/weighted-trackIG/worker_02.mot
version=1
nRows=4
nColumns=50
inDegrees=yes
endheader
                time	         pelvis_tilt	         pelvis_list	     pelvis_rotation	           pelvis_tx	           pelvis_ty	           pelvis_tz	       hip_flexion_r	     hip_adduction_r	      hip_rotation_r	        knee_angle_r	       ankle_angle_r	         mtp_angle_r	       hip_flexion_l	     hip_adduction_l	      hip_rotation_l	        knee_angle_l	       ankle_angle_l	         mtp_angle_l	    lumbar_extension	      lumbar_bending	     lumbar_rotation	 ercspn_r/activation	 intobl_r/activation	 extobl_r/activation	    abd_r/activation	    add_r/activation	hamstrings_r/activation	bifemsh_r/activation	glut_max_r/activation	iliopsoas_r/activation	rect_fem_r/activation	  vasti_r/activation	gastroc_r/activation	 soleus_r/activation	tib_ant_r/activation	 ercspn_l/activation	 intobl_l/activation	 extobl_l/activation	    abd_l/activation	    add_l/activation	hamstrings_l/activation	bifemsh_l/activation	glut_max_l/activation	iliopsoas_l/activation	rect_fem_l/activation	  vasti_l/activation	gastroc_l/activation	 soleus_l/activation	tib_ant_l/activation	
          1.30621264	         -4.20824118	         -0.96921318	          7.66758680	          1.52826878	          0.99028374	         -0.00109407	         28.39574002	         -0.93355674	         -8.36568500	         -6.13011701	          3.48265263	          0.24093950	        -13.27875595	         -2.38827515	         -5.94437219	        -11.39231234	          3.46357379	         37.94854311	        -13.11869986	         -1.36459371	         -7.95446251	          0.02825758	          0.14900355	          0.03473122	          0.01000018	          0.27525383	          0.05140751	          0.08068958	          0.09409189	          0.11365594	          0.01488441	          0.01000419	          0.01448122	          0.01482730	          0.32640865	          0.03323705	          0.01000193	          0.01000098	          0.03108766	          0.01217502	          0.02604494	          0.22055421	          0.01246111	          0.05435310	          0.01000339	          0.01000187	          0.30173535	          0.22222653	          0.01177901	
          1.31927476	         -4.25007723	         -1.09081654	          7.63059516	          1.54862585	          0.98807914	         -0.00029745	         28.15847916	         -0.73245474	         -8.55803481	         -7.67545609	          3.06744298	          0.20731276	        -13.76110643	         -2.75482002	         -6.42416684	        -12.46742367	          2.31471036	         39.58741500	        -12.55084260	         -0.87633860	         -8.08840892	          0.02320688	          0.12236469	          0.02852204	          0.07861642	          0.22604572	          0.06174291	          0.06626462	          0.11559861	          0.09333645	          0.01222352	          0.01000250	          0.01217980	          0.01217794	          0.36688678	          0.02729663	          0.01000047	          0.01000146	          0.02552981	          0.01000352	          0.02249669	          0.18112956	          0.01023363	          0.04644028	          0.01000173	          0.01000094	          0.26756928	          0.19815456	          0.01000016	
          1.33233689	         -4.27186538	         -1.22887200	          7.56188871	          1.56918600	          0.98620124	          0.00059424	         27.81737674	         -0.51330887	         -8.76938543	         -9.06761221	          2.46263241	          0.19833899	        -14.01243828	         -3.17226699	         -6.91915476	        -13.99129708	          1.03100396	         41.13783204	        -11.97763301	         -0.37008444	         -8.18268867	          0.02179013	          0.10048828	          0.02342293	          0.13134983	          0.22408796	          0.05909891	          0.05441842	          0.14443609	          0.07664971	          0.01003846	          0.01000572	          0.01000298	          0.01000106	          0.41315585	          0.02242185	          0.01000053	          0.01000105	          0.02096559	          0.01000222	          0.02850974	          0.14874887	          0.01000072	          0.08290304	          0.01000258	          0.01000130	          0.21973344	          0.16273018	          0.01000027	
          1.34539901	         -4.27653216	         -1.37640914	          7.46308712	          1.58954083	          0.98487501	          0.00159190	         27.52932882	         -0.28921371	         -9.00523956	        -10.56416778	          1.90028784	          0.16433158	        -13.93068134	         -3.64380899	         -7.42388699	        -16.09689017	         -0.35586098	         42.39569618	        -11.44634260	          0.14721447	         -8.23602489	          0.02798634	          0.08252294	          0.01923546	          0.18477202	          0.22756409	          0.06044541	          0.04468999	          0.15210282	          0.06294624	          0.01000091	          0.11481877	          0.01000207	          0.01000128	          0.43710358	          0.07887129	          0.01000136	          0.01000067	          0.01721736	          0.03788831	          0.04253661	          0.12215708	          0.01000068	          0.06815828	          0.01000110	          0.01000063	          0.18044935	          0.13363722	          0.01000025	
